<svg width="17" height="18" viewBox="0 0 17 18" fill="none" xmlns="http://www.w3.org/2000/svg">
<path d="M10.1839 2.12253C10.2384 1.6811 9.99477 1.25674 9.58611 1.08119C9.17744 0.905637 8.70195 1.0211 8.4193 1.36452L1.50572 9.76451C1.25984 10.0633 1.20836 10.477 1.37354 10.8269C1.53872 11.1768 1.89092 11.4 2.27783 11.4H7.36901L6.81623 15.8775C6.76173 16.3189 7.00534 16.7433 7.414 16.9188C7.82267 17.0944 8.29816 16.9789 8.58081 16.6355L15.4944 8.23548C15.7403 7.93674 15.7917 7.52297 15.6266 7.17308C15.4614 6.8232 15.1092 6.6 14.7223 6.6H9.6311L10.1839 2.12253Z" fill="#FFF" stroke="#FFF" stroke-width="2" stroke-linecap="round" stroke-linejoin="round"/>
</svg>
